<svg xmlns="http://www.w3.org/2000/svg" viewBox="0 0 266.34 42.81" fill="currentColor">
    <g>
      <path d="m9.34,5.23c-1.84-.51-3.39-.83-4.85-1.38-1.46-.56-1.52-.9-.99-2.39.17-.47.34-.93.54-1.46,1.01.45,1.9,1.05,2.88,1.25,2.27.47,4.57.81,6.88,1.06.82.09,1.07.23,1,1.09-.23,2.68-.19,2.69-2.75,3.5-1.32.41-2.65.79-3.95,1.32,2.54.06,5.1.34,7.53-.81,1.11,1.04,2.33,2.1,3.46,3.24.96.96.99,2.13.1,3.27-.42.54-.99,1.08-1.6,1.35-5.2,2.27-7.92,6.56-9.58,11.68-1.44,4.44-1.85,9.03-1.77,13.68.03,1.6-.35,2.1-1.55,2.18-1.62.11-2.81-.77-2.96-2.12C1.17,35.72.62,30.76.03,25.8c-.12-1.04.15-1.72.94-2.49,2.55-2.49,4.95-5.13,7.61-7.92-1.06-.4-1.9-.63-2.64-1.04-1.48-.82-2.94-1.69-4.34-2.63-.74-.5-.93-1.22-.69-2.19.79-3.12.75-3.09,3.91-3.46,1.45-.17,2.89-.52,4.52-.83Zm-4.31,5.11c-.04.14-.07.28-.11.41,1.17.48,2.34.98,3.52,1.42,2.17.82,3.07.42,4.19-1.84h-7.6Z" />
      <path d="m198.73,27.39c0-1.79.05-3.4-.04-4.99-.02-.29-.57-.63-.94-.8-.34-.16-.77-.11-1.16-.15-.03-.11-.05-.23-.08-.34,1.63-.64,3.26-1.29,4.82-1.9-.06,1.43-.17,2.73-.17,4.04-.02,5,.02,10-.04,14.99-.01,1.29.22,2.14,1.73,2.02.06,0,.14.08.2.13.03.02.03.07.11.27-1.17.45-2.33.94-3.53,1.31-.18.06-.74-.45-.77-.73-.1-.95-.02-1.91-.04-2.87,0-.38-.1-.76-.2-1.48-.83,1.01-1.39,1.76-2.02,2.45-1.12,1.23-2.22,2.54-4.04,2.7-2.43.22-4.36-1.48-4.95-4.29-.79-3.81,1.62-8.67,5.09-10.44,1.56-.79,3.1-.8,4.72-.34.38.11.75.24,1.32.42Zm.32,4.56c.03-3.23-3.69-5.38-6.23-4.02-3.11,1.66-4.22,7.69-1.96,10.65,1.53,2.01,3.54,2.18,5.3.33,1.94-2.05,2.74-4.6,2.9-6.96Z" />
      <path d="m147.9,41.74c1.06-3.82.43-7.74.5-11.6.03-1.47-1.17-2.08-2.56-1.51-1.93.8-2.95,2.47-3.57,4.28-.56,1.62-.77,3.38-.98,5.1-.18,1.45.34,2.62,1.93,3.06.27.08.49.33,1,.7h-8.01c.61-.35.94-.6,1.32-.75,1.05-.43,1.52-1.16,1.5-2.32-.05-2.79-.02-5.58-.02-8.36,0-1.65-.18-1.81-1.91-1.74-.16,0-.31-.03-.47-.04-.04-.11-.08-.23-.12-.34,1.55-.6,3.09-1.2,5-1.94v5.1c.12.02.25.03.37.05.73-.88,1.42-1.79,2.2-2.62,1-1.06,2.07-2.05,3.63-2.26,1.59-.21,2.92.6,3.04,2.19.17,2.28.13,4.57.17,6.85.01.54.05,1.09,0,1.62-.17,1.88.09,3.51,2.24,4.12.08.02.12.19.26.41h-5.5Z" />
      <path d="m12.15,28.23c1.41-.59,2.83-1.18,4.34-1.82,1,1.59-.2,3.42.52,5.24.59-.73,1-1.42,1.58-1.92,1.21-1.05,2.38-2.24,3.79-2.93,2.01-.99,3.7.12,3.85,2.36.15,2.24.08,4.49.1,6.74.02,2.24-.7,4.79,2.75,5.56-.11.09-.21.17-.32.26h-5.35c.76-3.79.24-7.69.34-11.57.03-1.42-1.06-2.09-2.39-1.56-2.42.97-3.38,3.13-4.07,5.38-.41,1.33-.45,2.78-.59,4.18-.14,1.46.44,2.5,1.92,2.95.25.08.46.3.96.63h-7.93c.66-.41,1.06-.7,1.49-.92.86-.43,1.34-1.07,1.34-2.06,0-3,0-6,.03-9,0-.79-.34-1.16-1.1-1.17-.37,0-.74,0-1.12,0-.05-.12-.1-.23-.15-.35Z" />
      <path d="m84.74,41.77h-5.64c.84-3.92.32-7.9.37-11.86.01-1.23-1.1-1.94-2.2-1.34-1.09.59-2.15,1.44-2.88,2.43-1.64,2.22-2.03,4.86-1.97,7.58.03,1.18.5,1.97,1.63,2.38.36.13.67.38.92.8h-7.53c.25-.24.34-.39.47-.43,2.09-.63,2.43-2.19,2.34-4.11-.1-2.24-.1-4.5,0-6.74.07-1.34-.4-1.93-1.7-1.95-.19,0-.38-.09-.63-.44,1.45-.53,2.9-1.06,4.67-1.71v5.1c.1,0,.21,0,.31.01.97-1.11,1.86-2.3,2.94-3.29.74-.68,1.68-1.26,2.63-1.56,1.95-.61,3.42.49,3.48,2.54.08,2.7.1,5.41.04,8.11-.04,1.78.11,3.35,2.19,3.9.13.04.22.22.54.56Z" />
      <path d="m227.45,41.67h-6.97c.15-.18.23-.37.35-.4,1.99-.52,2.15-2.07,2.14-3.73-.02-2.29-.01-4.58-.06-6.87-.04-2.08-.18-2.18-2.19-2.21-.04-.11-.08-.22-.12-.33,1.42-.53,2.85-1.05,4.53-1.68v5.17c.09.03.19.06.28.09.79-.88,1.51-1.84,2.38-2.63.95-.85,1.96-1.72,3.09-2.24,1.7-.78,3.29.11,3.52,1.95.24,1.97.19,3.98.24,5.98.03,1.21.05,2.42-.01,3.62-.07,1.39.42,2.34,1.79,2.77.18.06.34.2.79.48h-4.99c.03-3.65.05-7.28.1-10.91.01-.98-.15-1.86-1.13-2.3-.97-.44-1.81-.02-2.52.6-3.18,2.77-4.01,6.38-3.49,10.38.07.55.8,1.05,1.29,1.5.28.25.7.34,1.05.51-.02.08-.05.16-.07.24Z" />
      <path d="m100.7,39.14c-.65,1.6-2.87,3.12-4.19,3.08-.8-.03-1.23-.48-1.27-1.25-.04-.74,0-1.47,0-2.54-.61.47-.98.75-1.35,1.04-.91.72-1.77,1.52-2.75,2.14-1.54.97-3.23.75-4.19-.41-1.11-1.33-1.1-3.01.1-4.45,1.78-2.13,4.17-3.4,6.6-4.59,1.62-.79,1.8-1.09,1.52-2.77-.28-1.7-1.65-2.38-3.27-1.6-1.35.65-2.18,1.76-2.64,3.16-.14.43-.18.91-.38,1.31-.12.25-.45.4-.68.6-.15-.22-.39-.43-.44-.67-.57-2.61-.14-3.55,2.35-4.55,1.33-.54,2.75-.97,4.17-1.16,2.24-.3,3.37.79,3.39,3.05.03,3.12-.01,6.24.02,9.36,0,.46.25.92.38,1.38.4-.17.8-.34,1.2-.52.41-.18.82-.36,1.42-.63Zm-5.46-6.22c-2.22.41-4.1,1.21-5.61,2.73-1.2,1.22-1.34,2.71-.43,3.67.97,1.02,2.34,1.03,3.69-.07,1.99-1.62,2.39-3.84,2.34-6.34Z" />
      <path d="m156.55,32.8c0-1.06-.08-2.14.04-3.19.04-.41.45-.97.82-1.12,1.88-.74,3.75-1.59,5.71-1.98,2.17-.44,3.36.79,3.37,3.02.02,3.08-.02,6.16.02,9.24,0,.5.25.99.39,1.49.44-.18.89-.33,1.31-.53.36-.18.7-.41,1.27-.47-.11.27-.15.59-.33.79-.42.45-.87.9-1.39,1.25-.93.63-2.07,1.45-3.06.68-.56-.43-.5-1.69-.7-2.58-.05-.2-.03-.4-.07-.88-.47.38-.79.65-1.13.9-1.06.8-2.06,1.68-3.2,2.35-1.31.77-2.81.51-3.67-.42-1.14-1.25-1.43-2.79-.31-4.07,1.24-1.41,2.77-2.59,4.28-3.73.88-.66,1.97-1.05,2.98-1.55,1.19-.59,1.57-2.02.91-3.37-.53-1.08-1.8-1.5-2.99-.87-1.47.77-2.41,1.98-2.82,3.62-.14.56-.48,1.07-.73,1.6-.23-.06-.46-.12-.7-.18Zm7.7.35c-2.34-.17-5.66,1.73-6.53,3.64-.41.9-.39,1.78.3,2.55.68.77,1.57.97,2.48.6.67-.28,1.32-.71,1.84-1.21,1.52-1.51,1.68-3.51,1.9-5.57Z" />
      <path d="m134.97,33.49c0,4.67-3.45,8.48-7.87,8.69-3.88.18-6.51-2.08-6.91-5.96-.45-4.3,2-8.27,6.08-9.46,4.15-1.21,8.77,1.21,8.71,6.73Zm-2.24,1.74c0-2.6-1.19-5.03-3.14-6.48-2.73-2.03-6.42-.67-7.09,2.66-.65,3.23.23,6,2.74,8.19,1.13.99,2.46,1.36,3.93,1.05,2.3-.48,3.56-2.43,3.56-5.41Z" />
      <path d="m207.01,33.12c-1.13-2.62-.6-4.37,1.56-5.19,1.64-.62,3.4-1.07,5.14-1.25,1.65-.17,2.45.76,2.47,2.41.04,3.16,0,6.33.04,9.5,0,.57.29,1.15.44,1.72.59-.2,1.18-.38,1.76-.6.21-.08.41-.22.68-.21-.92,1.36-2.13,2.29-3.8,2.52-.84.12-1.23-.41-1.27-1.18-.04-.77,0-1.54,0-2.31-.12-.05-.24-.1-.36-.14-.32.26-.64.52-.97.77-1.05.81-2.03,1.74-3.16,2.4-1.48.86-2.74.65-3.64-.36-1.06-1.18-1.3-2.75-.2-3.98,1.19-1.34,2.65-2.48,4.11-3.55.92-.68,2.06-1.07,3.1-1.6,1.2-.61,1.47-2.1.68-3.71-.47-.95-1.69-1.34-2.81-.83-1.68.76-2.59,2.15-3.1,3.86-.14.48-.36.94-.67,1.72Zm7.08,1.05c-.04-.67.22-1.44-.79-1.25-2.13.42-4.02,1.32-5.39,3.06-.99,1.27-.97,2.63-.03,3.62.75.78,2.24.82,3.45.02,1.98-1.32,2.54-3.37,2.77-5.45Z" />
      <path d="m53.34,37.29c-.71.81-1.37,1.69-2.15,2.43-2.56,2.43-5.17,3.08-7.44,1.94-2.65-1.33-4.07-4.18-3.75-7.55.36-3.76,3.43-7.28,6.82-7.61,3.24-.32,5.32,2.08,5.76,5.01.11.77-.44.84-1.05.84-2.79-.01-5.58.03-8.37-.02-.69-.01-1.07.15-1.06.83.04,2.25.64,4.29,2.46,5.78,1.74,1.43,3.89,1.42,6-.03.85-.58,1.62-1.28,2.42-1.93.12.1.25.21.37.31Zm-10.88-5.75c2.25,0,4.4-.02,6.55,0,.9.01.93-.44.74-1.12-.48-1.77-2.11-3.07-3.71-2.92-1.79.17-3.52,2.03-3.58,4.03Z" />
      <path d="m65.92,31.82c-.22-.41-.41-.84-.67-1.23-.41-.61-.88-1.68-1.3-1.67-.79.02-1.79.49-2.32,1.1-1.35,1.59-1.86,3.59-2.12,5.63-.12.9-.13,1.83-.09,2.74.08,1.81.56,2.3,2.34,2.63.42.08.82.26,1.22.4-.03.11-.05.23-.08.34h-8.73c.54-.32.84-.55,1.18-.69,1.17-.47,1.75-1.25,1.72-2.58-.06-2.49-.02-4.99-.03-7.49-.01-2.45-.02-2.45-2.37-2.42l-.14-.34c1.55-.62,3.09-1.24,4.99-2v4.84c.15.03.31.07.46.1.2-.32.42-.62.61-.95.87-1.49,1.86-2.87,3.55-3.53,1.63-.63,2.34-.13,2.34,1.61,0,1.14,0,2.27,0,3.41-.19.03-.37.06-.56.1Z" />
      <path d="m177.93,41.79h-7.62c.47-.34.68-.58.95-.67,1.44-.49,1.95-1.49,1.93-2.97-.05-4.83-.02-9.66-.04-14.49,0-1.99-.04-1.99-1.97-2.25-.22-.03-.43-.13-.96-.3,2.13-.81,3.95-1.51,5.84-2.23-.91,3.2-.39,6.36-.47,9.48-.08,3.08.04,6.16-.03,9.24-.04,1.63.18,3,1.99,3.53.24.07.46.19.69.28-.11.13-.22.25-.32.38Z" />
      <path d="m106.79,22.08c-.2,1.16-.56,2.38-.57,3.6-.01,1.72.83,2.41,2.57,2.54.46.03.91.17,1.37.26,0,.15-.02.3-.03.44-.9,0-1.8.05-2.7-.02-.87-.07-1.29.12-1.27,1.12.06,3,0,5.99.03,8.99,0,1.23.53,1.52,1.65.98.55-.27,1.1-.56,1.93-.98-.72,1.78-3.42,3.39-4.78,3.15-1.21-.22-1.27-1.18-1.28-2.11-.02-3.16,0-6.33,0-9.49,0-1.66,0-1.66-1.69-1.65-.27,0-.54-.06-.88-.32.3-.15.58-.37.9-.44,1.29-.26,1.74-1.12,1.81-2.33.16-2.92.17-2.92,2.94-3.74Z" />
      <path d="m29.91,28.6c.27-.16.52-.34.8-.46,1.71-.72,1.92-1.02,1.89-2.76q-.04-2.14,1.91-2.94c.4-.17.81-.32,1.01-.4-.2,1.29-.55,2.59-.57,3.9-.02,1.36.85,2.06,2.22,2.21.59.06,1.17.18,1.75.28,0,.16-.01.32-.02.47-.89,0-1.8.09-2.68-.02-1.09-.14-1.37.26-1.35,1.3.05,2.83,0,5.66.01,8.49.01,1.82.46,2.06,2.08,1.16.41-.23.82-.46,1.37-.78-.43,1.66-3.46,3.51-4.78,3.03-.38-.14-.77-.66-.85-1.07-.17-.84-.18-1.73-.19-2.6-.03-2.71-.08-5.41-.01-8.12.03-1.13-.31-1.53-1.41-1.36-.37.06-.77-.05-1.15-.08-.01-.08-.03-.16-.04-.24Z" />
      <path d="m259,31.69c1.1,0,2.2-.02,3.3,0,.97.02,1.27-.41,1.05-1.32-.56-2.34-3.47-4.26-5.77-2.14-1,.92-1.61,1.89-1.77,3.39-.14,1.33-.34,2.6,0,3.9,1.16,4.5,5.29,5.91,8.95,3.05.51-.4.98-.85,1.58-1.37-.99,2.87-5.32,5.39-7.95,4.77-3.01-.71-5.31-4.57-4.77-8,.55-3.52,3.03-6.56,5.88-7.21,3.02-.7,5.96,1.34,6.38,4.41.09.67-.11,1.06-.83,1.07-2.02,0-4.04,0-6.06,0v-.55Z" />
      <path d="m251.36,37.08c-.8,2.77-4.79,5.32-7.49,4.94-2.69-.37-5.01-3.18-5.07-6.14-.08-4.1,1.82-7.3,5.33-8.79,2.07-.88,4.16-.52,6.17.3.3.12.54.69.59,1.08.09.74.05,1.5,0,2.24-.02.29-.22.56-.33.84-.23-.23-.61-.44-.67-.71-.4-1.75-1.41-2.88-3.15-3.33-1.93-.49-3.92.36-4.95,2.22-1.38,2.48-1.54,5.05-.22,7.62,1.45,2.84,4.51,3.66,7.15,1.88.88-.59,1.65-1.35,2.63-2.17Z" />
      <path d="m111.38,28.21c1.54-.61,3.09-1.23,4.81-1.91.1.65.23,1.12.23,1.59,0,3.29.03,6.57-.05,9.86-.04,1.6.22,2.9,2.01,3.38.19.05.32.32.62.64h-7.93c.61-.39.91-.67,1.26-.8,1.13-.42,1.59-1.22,1.58-2.4-.02-2.87-.01-5.74.03-8.61.02-1.07-.56-1.39-1.47-1.4-.31,0-.62.07-.93.11-.05-.15-.1-.3-.15-.45Z" />
      <path d="m182.62,38.29c1.09-.02,1.98.83,2.04,1.94.05,1.02-.88,1.96-1.99,1.99-.99.02-1.93-.86-1.97-1.87-.05-1.06.86-2.04,1.92-2.06Z" />
      <path d="m115.14,22.68c-.86-.12-1.52-.55-1.49-1.48.02-.9.67-1.62,1.5-1.43.6.14,1.35.89,1.49,1.49.21.91-.62,1.31-1.5,1.43Z" />
  </g>
</svg>
